# xmcd CD database file
#
# Track frame offsets:
#	150
#	20615
#	40730
#	63362
#	89055
#	105967
#	125402
#	144365
#	166202
#	184307
#	212122
#
# Disc length: 3083 seconds
#
# Revision: 0
# Processed by: cddbd v1.5PL3 Copyright (c) Steve Scherf et al.
# Submitted via: CDex 1.51
#
DISCID=950c090b
DTITLE=The 99 1/2 (the ninetynine and half) - The 99 1/2 (the ninetynine and half)
DYEAR=1900
DGENRE=J-Pop
TTITLE0=FREE NIGHT
TTITLE1=SMILE
TTITLE2=SHE'S WAITING
TTITLE3=BURNIN' DOWN
TTITLE4=STARDUST
TTITLE5=Rumblin' Heart
TTITLE6=La・La・La
TTITLE7=again
TTITLE8=Shaky Disco〜one nite trip
TTITLE9=でも大丈夫さ
TTITLE10=99 1/2 (Ninetynine and Halh)
EXTD=
EXTT0=
EXTT1=
EXTT2=
EXTT3=
EXTT4=
EXTT5=
EXTT6=
EXTT7=
EXTT8=
EXTT9=
EXTT10=
PLAYORDER=
